<svg width="1618" height="242" viewBox="0 0 1618 242" fill="none" xmlns="http://www.w3.org/2000/svg">
<circle cx="1186.33" cy="55.7954" r="12.6704" fill="black"/>
<circle cx="1186.33" cy="93.5844" r="12.6704" fill="black"/>
<path fill-rule="evenodd" clip-rule="evenodd" d="M467.135 65.1577C460.429 68.2058 457.464 76.1128 460.512 82.8185C463.56 89.5242 471.467 92.4892 478.173 89.4411C484.879 86.393 487.844 78.486 484.796 71.7803C481.748 65.0746 473.84 62.1096 467.135 65.1577ZM499.824 104.842L505.308 116.907L528.378 106.421L507.865 61.294C499.025 41.8475 476.095 33.2489 456.649 42.0884C437.202 50.9279 428.603 73.8583 437.443 93.3048C446.282 112.751 469.213 121.35 488.659 112.51C492.926 110.571 496.671 107.953 499.824 104.842Z" fill="black"/>
<path fill-rule="evenodd" clip-rule="evenodd" d="M572.668 89.1378C580.034 89.1378 586.005 83.1665 586.005 75.8005C586.005 68.4346 580.034 62.4633 572.668 62.4633C565.302 62.4633 559.33 68.4346 559.33 75.8005C559.33 83.1665 565.302 89.1378 572.668 89.1378ZM559.33 39.4836C563.488 37.9563 567.98 37.1225 572.668 37.1225C594.029 37.1225 611.346 54.4392 611.346 75.8005C611.346 97.1618 594.029 114.479 572.668 114.479C551.306 114.479 533.99 97.1618 533.99 75.8005C533.99 75.7923 533.99 75.7841 533.99 75.776L533.99 0.000527295L559.33 0.00052951L559.33 39.4836Z" fill="black"/>
<path fill-rule="evenodd" clip-rule="evenodd" d="M1038.68 230.369C1033.46 225.37 1025.17 225.439 1020.03 230.578C1004.92 245.682 980.435 245.682 965.33 230.578C960.122 225.37 951.677 225.369 946.468 230.579C931.364 245.683 906.874 245.684 891.769 230.579C886.561 225.371 878.116 225.371 872.907 230.58C857.803 245.684 833.313 245.684 818.209 230.58C813 225.372 804.556 225.371 799.347 230.58C784.242 245.685 759.753 245.685 744.648 230.58C739.44 225.372 730.995 225.372 725.786 230.581C710.681 245.686 686.192 245.686 671.087 230.581C665.879 225.373 657.434 225.373 652.226 230.582C637.121 245.686 612.631 245.686 597.527 230.582C592.318 225.373 583.874 225.373 578.665 230.582C563.56 245.687 539.07 245.686 523.966 230.582C518.758 225.373 510.313 225.373 505.104 230.582C490 245.687 465.51 245.687 450.405 230.582C445.197 225.374 436.753 225.374 431.544 230.583C416.439 245.688 391.95 245.689 376.845 230.584C371.636 225.376 363.192 225.375 357.983 230.584C342.878 245.689 318.389 245.689 303.284 230.584C298.076 225.376 289.631 225.376 284.422 230.585C269.318 245.69 244.828 245.69 229.723 230.585C224.515 225.377 216.07 225.377 210.862 230.586C195.757 245.69 171.267 245.69 156.163 230.586C150.954 225.377 142.51 225.377 137.301 230.586C122.196 245.691 97.7067 245.691 82.602 230.586C77.3938 225.378 68.9492 225.378 63.7403 230.587C48.6356 245.691 24.146 245.691 9.04134 230.587L0.0820312 221.627L18.0007 203.709L26.96 212.668C32.1685 217.877 40.6132 217.877 45.8217 212.668C60.926 197.564 85.4156 197.562 100.521 212.667C105.729 217.876 114.174 217.876 119.382 212.667C134.487 197.563 158.976 197.562 174.081 212.667C179.29 217.875 187.734 217.875 192.943 212.667C208.047 197.563 232.537 197.561 247.642 212.666C252.85 217.875 261.295 217.875 266.504 212.666C281.608 197.562 306.097 197.561 321.203 212.666C326.411 217.874 334.856 217.874 340.064 212.666C355.169 197.561 379.658 197.56 394.763 212.665C399.971 217.873 408.416 217.873 413.625 212.665C428.729 197.561 453.219 197.558 468.324 212.663C473.532 217.872 481.977 217.872 487.186 212.663C502.29 197.559 526.779 197.558 541.885 212.663C547.093 217.872 555.538 217.872 560.746 212.663C575.851 197.559 600.34 197.558 615.445 212.663C620.654 217.871 629.098 217.871 634.307 212.663C649.411 197.559 673.901 197.557 689.006 212.662C694.214 217.871 702.659 217.871 707.868 212.662C722.972 197.558 747.461 197.557 762.567 212.662C767.775 217.87 776.22 217.87 781.428 212.662C796.532 197.558 821.022 197.556 836.127 212.661C841.336 217.87 849.78 217.87 854.989 212.661C870.093 197.557 894.583 197.555 909.688 212.661C914.896 217.869 923.341 217.869 928.55 212.66C943.654 197.556 968.143 197.553 983.248 212.659C988.457 217.867 996.902 217.867 1002.11 212.659C1014.08 200.691 1031.94 198.205 1046.35 205.202L1047.85 203.704L1056.45 212.302C1056.57 212.42 1056.69 212.539 1056.81 212.658L1057.02 212.871C1062.25 217.871 1070.53 217.801 1075.67 212.663C1090.78 197.559 1115.26 197.558 1130.37 212.663C1135.58 217.871 1144.02 217.871 1149.23 212.663C1164.34 197.559 1188.83 197.557 1203.93 212.662C1209.14 217.871 1217.58 217.871 1222.79 212.662C1237.9 197.558 1262.39 197.557 1277.49 212.662C1282.7 217.87 1291.14 217.87 1296.35 212.662C1311.46 197.558 1335.95 197.556 1351.05 212.661C1356.26 217.87 1364.7 217.87 1369.91 212.661C1385.02 197.557 1409.51 197.555 1424.61 212.661C1429.82 217.869 1438.27 217.869 1443.47 212.66C1458.58 197.556 1483.07 197.553 1498.17 212.659C1503.38 217.867 1511.83 217.867 1517.03 212.659C1532.14 197.555 1556.63 197.553 1571.73 212.658C1576.94 217.867 1585.39 217.867 1590.6 212.658L1599.55 203.699L1617.47 221.618L1608.51 230.577C1593.41 245.682 1568.92 245.682 1553.81 230.577C1548.61 225.369 1540.16 225.369 1534.95 230.578C1519.85 245.682 1495.36 245.682 1480.25 230.578C1475.05 225.37 1466.6 225.369 1461.39 230.579C1446.29 245.683 1421.8 245.684 1406.69 230.579C1401.49 225.371 1393.04 225.371 1387.83 230.58C1372.73 245.684 1348.24 245.684 1333.13 230.58C1327.93 225.372 1319.48 225.371 1314.27 230.58C1299.17 245.685 1274.68 245.685 1259.57 230.58C1254.36 225.372 1245.92 225.372 1240.71 230.581C1225.61 245.686 1201.12 245.686 1186.01 230.581C1180.8 225.373 1172.36 225.373 1167.15 230.582C1152.05 245.686 1127.56 245.686 1112.45 230.582C1107.24 225.373 1098.8 225.373 1093.59 230.582C1081.62 242.55 1063.76 245.035 1049.35 238.038L1047.85 239.536L1039.25 230.937C1039.13 230.82 1039.01 230.701 1038.89 230.582L1038.68 230.369Z" fill="#A3D3FF"/>
<path fill-rule="evenodd" clip-rule="evenodd" d="M857.641 115.365L846.082 115.365C824.72 115.365 807.404 98.0485 807.404 76.6872L807.404 0.887248L832.745 0.887251L832.745 26.1169L857.641 26.1169L857.641 51.4576L832.745 51.4576L832.745 76.6872C832.745 84.0532 838.716 90.0245 846.082 90.0245L857.641 90.0245L857.641 115.365Z" fill="black"/>
<path fill-rule="evenodd" clip-rule="evenodd" d="M662.027 89.1378C669.393 89.1378 675.364 83.1665 675.364 75.8005C675.364 68.4346 669.393 62.4633 662.027 62.4633C654.661 62.4633 648.69 68.4346 648.69 75.8005C648.69 83.1665 654.661 89.1378 662.027 89.1378ZM700.705 75.8005C700.705 97.1618 683.388 114.479 662.027 114.479C640.666 114.479 623.349 97.1618 623.349 75.8005C623.349 54.4392 640.666 37.1225 662.027 37.1225C683.388 37.1225 700.705 54.4393 700.705 75.8005Z" fill="black"/>
<path fill-rule="evenodd" clip-rule="evenodd" d="M662.027 89.1378C669.393 89.1378 675.364 83.1665 675.364 75.8005C675.364 68.4346 669.393 62.4633 662.027 62.4633C654.661 62.4633 648.69 68.4346 648.69 75.8005C648.69 83.1665 654.661 89.1378 662.027 89.1378ZM700.705 75.8005C700.705 97.1618 683.388 114.479 662.027 114.479C640.666 114.479 623.349 97.1618 623.349 75.8005C623.349 54.4392 640.666 37.1225 662.027 37.1225C683.388 37.1225 700.705 54.4393 700.705 75.8005Z" fill="black"/>
<path fill-rule="evenodd" clip-rule="evenodd" d="M1117.42 64.6845C1110.05 64.6845 1104.08 70.6558 1104.08 78.0218V80.0224L1130.76 80.0224V78.0218C1130.76 70.6558 1124.79 64.6845 1117.42 64.6845ZM1104.09 105.363L1156.1 105.363L1156.1 78.0218C1156.1 56.6605 1138.78 39.3438 1117.42 39.3438C1096.06 39.3437 1078.74 56.6605 1078.74 78.0218L1078.74 105.001C1078.74 126.363 1096.06 143.679 1117.42 143.679H1139.35V118.339H1117.42C1110.18 118.339 1104.28 112.562 1104.09 105.363Z" fill="black"/>
<path fill-rule="evenodd" clip-rule="evenodd" d="M971.047 62.4638C963.681 62.4638 957.71 68.4351 957.71 75.801V116.924H932.369V75.801C932.369 54.4398 949.686 37.123 971.047 37.123C981.061 37.123 990.186 40.9285 997.055 47.1722C1003.92 40.9285 1013.05 37.123 1023.06 37.123C1044.42 37.123 1061.74 54.4398 1061.74 75.801V116.924H1036.4V75.801C1036.4 68.4351 1030.43 62.4638 1023.06 62.4638C1015.7 62.4638 1009.73 68.4351 1009.73 75.801V97.5852H984.384V75.801C984.384 68.4351 978.413 62.4638 971.047 62.4638Z" fill="black"/>
<path fill-rule="evenodd" clip-rule="evenodd" d="M760.86 85.3951C767.758 82.8128 771.257 75.1272 768.675 68.2287L755.116 32.0053L778.848 23.1216L792.407 59.345C799.896 79.3506 789.749 101.639 769.743 109.128C749.738 116.616 727.449 106.469 719.961 86.4636L706.401 50.2402L730.134 41.3566L743.693 77.5799C746.276 84.4784 753.961 87.9774 760.86 85.3951Z" fill="black"/>
</svg>
