<svg width="216" height="215" viewBox="0 0 216 215" fill="none" xmlns="http://www.w3.org/2000/svg">
<path fill-rule="evenodd" clip-rule="evenodd" d="M215.25 0H0.25V215H215.25V0ZM191.062 126.99C191.062 139.974 180.487 150.5 167.442 150.5H46.7144C33.6691 150.5 23.0938 139.974 23.0938 126.99C23.0938 114.005 33.6691 103.479 46.7144 103.479C50.3366 103.479 53.7685 104.291 56.8363 105.741C62.005 98.4062 70.5648 93.611 80.2498 93.611C83.214 93.611 86.0729 94.0602 88.7613 94.8939C95.2156 84.7058 106.622 77.9375 119.617 77.9375C137.2 77.9375 151.874 90.3274 155.309 106.814C158.855 104.697 163.006 103.479 167.442 103.479C180.487 103.479 191.062 114.005 191.062 126.99Z" fill="#FFC0D3"/>
</svg>
