<svg width="216" height="215" viewBox="0 0 216 215" fill="none" xmlns="http://www.w3.org/2000/svg">
<path d="M107.828 141.094C126.01 141.094 140.75 126.354 140.75 108.172C140.75 89.9896 126.01 75.25 107.828 75.25C89.6459 75.25 74.9062 89.9896 74.9062 108.172C74.9062 126.354 89.6459 141.094 107.828 141.094Z" fill="#FFC0D3"/>
<path fill-rule="evenodd" clip-rule="evenodd" d="M1 0H216V215H1V0ZM107.828 167.969C140.853 167.969 167.625 141.197 167.625 108.172C167.625 75.147 140.853 48.375 107.828 48.375C74.8032 48.375 48.0312 75.147 48.0312 108.172C48.0312 141.197 74.8032 167.969 107.828 167.969ZM178.375 51.0625C185.796 51.0625 191.812 45.0463 191.812 37.625C191.812 30.2037 185.796 24.1875 178.375 24.1875C170.954 24.1875 164.938 30.2037 164.938 37.625C164.938 45.0463 170.954 51.0625 178.375 51.0625Z" fill="#FFC0D3"/>
</svg>
