<svg width="216" height="215" viewBox="0 0 216 215" fill="none" xmlns="http://www.w3.org/2000/svg">
<path fill-rule="evenodd" clip-rule="evenodd" d="M215.5 0H0.5V215H215.5V0ZM47.5312 52.4062C47.5312 50.1799 49.3361 48.375 51.5625 48.375H65C67.2264 48.375 69.0312 50.1799 69.0312 52.4062V192.828H95.9062V52.4062C95.9062 35.3372 82.0691 21.5 65 21.5H51.5625C34.4935 21.5 20.6562 35.3372 20.6562 52.4062V192.828H47.5312V52.4062ZM138.906 53.75C138.906 50.7815 141.313 48.375 144.281 48.375H164.438C167.406 48.375 169.812 50.7815 169.812 53.75V100.445H196.688V53.75C196.688 35.9388 182.249 21.5 164.438 21.5H144.281C126.47 21.5 112.031 35.9388 112.031 53.75V162.594C112.031 179.663 125.868 193.5 142.938 193.5H165.781C182.85 193.5 196.688 179.663 196.688 162.594V114.891H153.016V141.766H169.812V162.594C169.812 164.82 168.008 166.625 165.781 166.625H142.938C140.711 166.625 138.906 164.82 138.906 162.594V53.75Z" fill="#FFC0D3"/>
</svg>
