<svg width="215" height="215" viewBox="0 0 215 215" fill="none" xmlns="http://www.w3.org/2000/svg">
<path d="M215 215H0V0H215V215ZM113 123C113 132.941 104.941 141 95 141C85.0589 141 77 132.941 77 123C77 113.059 85.0589 105 95 105C97.4827 105 99.8483 105.502 102 106.411V81.584C99.7234 81.202 97.3852 81 95 81C71.804 81 53 99.804 53 123C53 146.196 71.804 165 95 165C118.196 165 137 146.196 137 123V86.4355C145.827 92.4696 156.501 96 168 96V72C150.879 72 137 58.1208 137 41H113V123Z" fill="#FFC0D3"/>
</svg>
