<svg width="215" height="215" viewBox="0 0 215 215" fill="none" xmlns="http://www.w3.org/2000/svg">
<path fill-rule="evenodd" clip-rule="evenodd" d="M215 0H0V215H215V0ZM163.464 99.2689C121.861 74.9595 83.0835 77.3293 54.6651 82.3859C49.0109 83.392 43.6116 79.624 42.6056 73.9697C41.5995 68.3155 45.3675 62.9163 51.0218 61.9102C81.779 56.4374 126.305 53.4681 173.956 81.3124C178.915 84.2098 180.586 90.5784 177.688 95.5369C174.791 100.495 168.422 102.166 163.464 99.2689ZM153.841 134.297C117.009 112.866 82.682 114.935 57.4287 119.405C51.7735 120.406 46.3777 116.633 45.3769 110.978C44.376 105.322 48.149 99.9266 53.8042 98.9257C81.3843 94.0444 121.435 91.38 164.3 116.321C169.264 119.21 170.947 125.575 168.059 130.539C165.17 135.503 158.805 137.186 153.841 134.297ZM59.7906 155.919C78.7944 149.171 109.407 149.219 137.787 166.85C142.666 169.88 149.077 168.382 152.108 163.504C155.138 158.626 153.64 152.214 148.762 149.184C114.836 128.108 77.6015 127.524 52.8307 136.321C47.4188 138.243 44.5896 144.188 46.5115 149.6C48.4335 155.012 54.3787 157.841 59.7906 155.919Z" fill="#FFC0D3"/>
</svg>
