<svg width="1250" height="237" viewBox="0 0 1250 237" fill="none" xmlns="http://www.w3.org/2000/svg">
<circle cx="1067.67" cy="43.6704" r="12.6704" fill="black"/>
<circle cx="1067.67" cy="81.4594" r="12.6704" fill="black"/>
<path fill-rule="evenodd" clip-rule="evenodd" d="M519.92 52.2963C513.214 55.3445 510.249 63.2515 513.297 69.9572C516.345 76.6629 524.252 79.6279 530.958 76.5798C537.664 73.5317 540.629 65.6247 537.581 58.919C534.533 52.2133 526.626 49.2482 519.92 52.2963ZM552.609 91.9806L558.093 104.046L581.163 93.5595L560.65 48.4327C551.811 28.9862 528.88 20.3875 509.434 29.2271C489.987 38.0666 481.389 60.9969 490.228 80.4434C499.068 99.8899 521.998 108.489 541.444 99.6491C545.711 97.7095 549.456 95.0914 552.609 91.9806Z" fill="black"/>
<path fill-rule="evenodd" clip-rule="evenodd" d="M1038.68 225.369C1033.46 220.37 1025.17 220.439 1020.03 225.578C1004.92 240.682 980.435 240.682 965.33 225.578C960.122 220.37 951.677 220.369 946.468 225.579C931.364 240.683 906.874 240.684 891.769 225.579C886.561 220.371 878.116 220.371 872.907 225.58C857.803 240.684 833.313 240.684 818.209 225.58C813 220.372 804.556 220.371 799.347 225.58C784.242 240.685 759.753 240.685 744.648 225.58C739.44 220.372 730.995 220.372 725.786 225.581C710.681 240.686 686.192 240.686 671.087 225.581C665.879 220.373 657.434 220.373 652.226 225.582C637.121 240.686 612.631 240.686 597.527 225.582C592.318 220.373 583.874 220.373 578.665 225.582C563.56 240.687 539.07 240.686 523.966 225.582C518.758 220.373 510.313 220.373 505.104 225.582C490 240.687 465.51 240.687 450.405 225.582C445.197 220.374 436.753 220.374 431.544 225.583C416.439 240.688 391.95 240.689 376.845 225.584C371.636 220.376 363.192 220.375 357.983 225.584C342.878 240.689 318.389 240.689 303.284 225.584C298.076 220.376 289.631 220.376 284.422 225.585C269.318 240.69 244.828 240.69 229.723 225.585C224.515 220.377 216.07 220.377 210.862 225.586C195.757 240.69 171.267 240.69 156.163 225.586C150.954 220.377 142.51 220.377 137.301 225.586C122.196 240.691 97.7067 240.691 82.602 225.586C77.3938 220.378 68.9492 220.378 63.7403 225.587C48.6356 240.691 24.146 240.691 9.04134 225.587L0.0820312 216.627L18.0007 198.709L26.96 207.668C32.1685 212.877 40.6132 212.877 45.8217 207.668C60.926 192.564 85.4156 192.562 100.521 207.667C105.729 212.876 114.174 212.876 119.382 207.667C134.487 192.563 158.976 192.562 174.081 207.667C179.29 212.875 187.734 212.875 192.943 207.667C208.047 192.563 232.537 192.561 247.642 207.666C252.85 212.875 261.295 212.875 266.504 207.666C281.608 192.562 306.097 192.561 321.203 207.666C326.411 212.874 334.856 212.874 340.064 207.666C355.169 192.561 379.658 192.56 394.763 207.665C399.971 212.873 408.416 212.873 413.625 207.665C428.729 192.561 453.219 192.558 468.324 207.663C473.532 212.872 481.977 212.872 487.186 207.663C502.29 192.559 526.779 192.558 541.885 207.663C547.093 212.872 555.538 212.872 560.746 207.663C575.851 192.559 600.34 192.558 615.445 207.663C620.654 212.871 629.098 212.871 634.307 207.663C649.411 192.559 673.901 192.557 689.006 207.662C694.214 212.871 702.659 212.871 707.868 207.662C722.972 192.558 747.461 192.557 762.567 207.662C767.775 212.87 776.22 212.87 781.428 207.662C796.532 192.558 821.022 192.556 836.127 207.661C841.336 212.87 849.78 212.87 854.989 207.661C870.093 192.557 894.583 192.555 909.688 207.661C914.896 212.869 923.341 212.869 928.55 207.66C943.654 192.556 968.143 192.553 983.248 207.659C988.457 212.867 996.902 212.867 1002.11 207.659C1014.08 195.691 1031.94 193.205 1046.35 200.202L1047.85 198.704L1056.45 207.302C1056.57 207.42 1056.69 207.539 1056.81 207.658L1057.02 207.871C1062.25 212.871 1070.53 212.801 1075.67 207.663C1090.78 192.559 1115.26 192.558 1130.37 207.663C1135.58 212.871 1144.02 212.871 1149.23 207.663C1164.34 192.559 1188.83 192.557 1203.93 207.662C1209.14 212.871 1217.58 212.871 1222.79 207.662L1231.75 198.703L1249.67 216.622L1240.71 225.581C1225.61 240.686 1201.12 240.686 1186.01 225.581C1180.8 220.373 1172.36 220.373 1167.15 225.582C1152.05 240.686 1127.56 240.686 1112.45 225.582C1107.24 220.373 1098.8 220.373 1093.59 225.582C1081.62 237.55 1063.76 240.035 1049.35 233.038L1047.85 234.536L1039.25 225.937C1039.13 225.82 1039.01 225.701 1038.89 225.582L1038.68 225.369Z" fill="#A3D3FF"/>
<path fill-rule="evenodd" clip-rule="evenodd" d="M472.566 114.479L461.008 114.479C439.646 114.479 422.33 97.1618 422.33 75.8005L422.33 0.000529666L447.67 0.000531881L447.67 25.2301L472.566 25.2301L472.566 50.5709L447.67 50.5709L447.67 75.8005C447.67 83.1665 453.642 89.1378 461.008 89.1378L472.566 89.1378L472.566 114.479Z" fill="black"/>
<path fill-rule="evenodd" clip-rule="evenodd" d="M722.566 114.479L711.008 114.479C689.646 114.479 672.33 97.1618 672.33 75.8005L672.33 0.000529666L697.67 0.000531881L697.67 25.2301L722.566 25.2301L722.566 50.5709L697.67 50.5709L697.67 75.8005C697.67 83.1665 703.642 89.1378 711.008 89.1378L722.566 89.1378L722.566 114.479Z" fill="black"/>
<path fill-rule="evenodd" clip-rule="evenodd" d="M183.651 74.1631C189.764 78.273 198.051 76.6493 202.161 70.5366L223.191 84.6757C211.272 102.403 187.239 107.111 169.512 95.1925C151.785 83.2738 147.077 59.2411 158.995 41.5141C170.914 23.7871 194.947 19.0786 212.674 30.9973C217.503 34.244 221.388 38.415 224.225 43.1263L202.516 56.1975C201.551 54.5949 200.226 53.1637 198.535 52.0268C192.422 47.9169 184.135 49.5405 180.025 55.6533C175.915 61.766 177.539 70.0531 183.651 74.1631Z" fill="black"/>
<path fill-rule="evenodd" clip-rule="evenodd" d="M616.651 74.1631C622.764 78.273 631.051 76.6493 635.161 70.5366L656.191 84.6757C644.272 102.403 620.239 107.111 602.512 95.1925C584.785 83.2738 580.077 59.2411 591.995 41.5141C603.914 23.7871 627.947 19.0786 645.674 30.9973C650.503 34.244 654.388 38.415 657.225 43.1263L635.516 56.1975C634.551 54.5949 633.226 53.1637 631.535 52.0268C625.422 47.9169 617.135 49.5405 613.025 55.6533C608.915 61.766 610.539 70.0531 616.651 74.1631Z" fill="black"/>
<path fill-rule="evenodd" clip-rule="evenodd" d="M272.008 76.3448C279.374 76.3448 285.345 70.3735 285.345 63.0075C285.345 55.6416 279.374 49.6703 272.008 49.6703C264.642 49.6703 258.67 55.6416 258.67 63.0075C258.67 70.3735 264.642 76.3448 272.008 76.3448ZM310.686 63.0075C310.686 84.3688 293.369 101.686 272.008 101.686C250.646 101.686 233.33 84.3688 233.33 63.0075C233.33 41.6463 250.646 24.3295 272.008 24.3295C293.369 24.3296 310.686 41.6463 310.686 63.0075Z" fill="black"/>
<path fill-rule="evenodd" clip-rule="evenodd" d="M996.383 51.8896C989.017 51.8896 983.046 57.8609 983.046 65.2269V67.2275L1009.72 67.2275V65.2269C1009.72 57.8609 1003.75 51.8896 996.383 51.8896ZM983.051 92.5682L1035.06 92.5682L1035.06 65.2269C1035.06 43.8656 1017.74 26.5488 996.383 26.5488C975.022 26.5488 957.705 43.8656 957.705 65.2268L957.705 92.2065C957.705 113.568 975.022 130.884 996.383 130.884H1018.31V105.544H996.383C989.138 105.544 983.242 99.7669 983.051 92.5682Z" fill="black"/>
<path fill-rule="evenodd" clip-rule="evenodd" d="M849.008 49.6708C841.642 49.6708 835.671 55.6421 835.671 63.0081V104.131H810.33V63.0081C810.33 41.6468 827.647 24.3301 849.008 24.3301C859.022 24.3301 868.147 28.1355 875.016 34.3792C881.885 28.1355 891.01 24.3301 901.023 24.3301C922.385 24.3301 939.701 41.6468 939.701 63.0081V104.131H914.361V63.0081C914.361 55.6421 908.389 49.6708 901.023 49.6708C893.657 49.6708 887.686 55.6421 887.686 63.0081V84.7922H862.345V63.0081C862.345 55.6421 856.374 49.6708 849.008 49.6708Z" fill="black"/>
<path fill-rule="evenodd" clip-rule="evenodd" d="M365.008 49.6708C357.642 49.6708 351.671 55.6421 351.671 63.0081L351.671 101.686L326.33 101.686L326.33 63.0081C326.33 41.6468 343.647 24.3301 365.008 24.3301C386.369 24.3301 403.686 41.6468 403.686 63.0081L403.686 101.686L378.345 101.686L378.345 63.0081C378.345 55.6421 372.374 49.6708 365.008 49.6708Z" fill="black"/>
</svg>
