<svg width="1307" height="892" viewBox="0 0 1307 892" fill="none" xmlns="http://www.w3.org/2000/svg">
<path d="M276.921 753.092C281.585 624.827 182.995 599.883 118.534 604.308C108.151 605.021 99.8875 610.374 96.2434 618.469C70.2261 676.264 71.7841 770.155 245.776 777.505C263.024 778.234 276.382 767.918 276.921 753.092Z" fill="#FFC0D3"/>
<path d="M764.917 549.82C597.321 565.938 568.742 628.192 578.76 671.274C581.569 683.354 596.132 692.378 611.59 693.716C694.905 700.926 815.604 685.061 811.182 580.221C810.421 562.199 787.271 547.67 764.917 549.82Z" fill="#FFC0D3"/>
<path d="M569.607 780.958C737.936 777.295 771.047 717.329 764.247 673.623C762.34 661.368 748.485 651.29 733.169 648.811C650.616 635.451 529.073 642.334 525.72 747.214C525.144 765.243 547.154 781.446 569.607 780.958Z" fill="#FFC0D3"/>
<path d="M894.996 585.072C732.168 573.026 681.098 625.443 673.557 668.235C671.158 681.852 683.237 694.966 698.435 699.008C775.546 719.518 894.455 724.108 929.373 626.864C936.238 607.744 917.806 586.759 894.996 585.072Z" fill="#FFC0D3"/>
<path d="M1263.15 707.486C1181.18 579.023 1067.68 583.46 1005.04 607.822C992.829 612.57 986.815 622.175 988.868 631.844C1002.84 697.626 1068.02 788.946 1242.65 742.927C1262.97 737.571 1272.03 721.401 1263.15 707.486Z" fill="#FFC0D3"/>
<path d="M58.0774 800.845C207.677 775.606 285.012 647.243 266.898 588.658C263.658 578.177 254.08 573.894 245.419 575.994C183.977 590.895 70.9767 687.414 33.882 762.839C23.8613 783.214 38.8491 804.089 58.0774 800.845Z" fill="#FFC0D3"/>
<path d="M383.011 675.74C236.367 605.593 65.1981 649.991 23.4176 690.767C13.5849 700.363 23.6784 714.052 38.939 717.496C121.597 736.146 291.082 741.163 383.82 720.92C408.533 715.526 407.741 687.569 383.011 675.74Z" fill="#FFC0D3"/>
<path d="M740.903 662.065C628.228 568.28 448.059 578.05 391.161 608.921C377.608 616.274 381.714 631.805 395.164 638.065C467.097 671.546 626.761 708.325 723.935 706.785C749.998 706.372 760.41 678.302 740.903 662.065Z" fill="#FFC0D3"/>
<path d="M1241.28 579.478C1013.11 577.983 898.873 722.209 918.127 774.398C921.451 783.407 935.914 786.133 949.007 783.057C1042.71 761.047 1213.22 674.469 1267.34 609.375C1279.5 594.741 1264.65 579.631 1241.28 579.478Z" fill="#FFC0D3"/>
<path fill-rule="evenodd" clip-rule="evenodd" d="M708 309C689.222 309 674 324.222 674 343V427H624V343C624 296.608 661.608 259 708 259C754.392 259 792 296.608 792 343V368H742V343C742 324.222 726.778 309 708 309Z" fill="#FA92B1"/>
<path fill-rule="evenodd" clip-rule="evenodd" d="M904 309C885.222 309 870 324.222 870 343C870 361.778 885.222 377 904 377C922.778 377 938 361.778 938 343C938 324.222 922.778 309 904 309ZM820 343C820 296.608 857.608 259 904 259C950.392 259 988 296.608 988 343C988 389.392 950.392 427 904 427C857.608 427 820 389.392 820 343Z" fill="#FA92B1"/>
<path fill-rule="evenodd" clip-rule="evenodd" d="M404 309C385.222 309 370 324.222 370 343C370 361.778 385.222 377 404 377C422.778 377 438 361.778 438 343C438 324.222 422.778 309 404 309ZM320 343C320 296.608 357.608 259 404 259C450.392 259 488 296.608 488 343C488 389.392 450.392 427 404 427C357.608 427 320 389.392 320 343Z" fill="#FA92B1"/>
<path d="M1184 259H1134V343.108C1134 361.988 1118.73 377.216 1100 377.216C1081.27 377.216 1066 361.988 1066 343.108V259H1016V343.108C1016 389.516 1053.57 427.216 1100 427.216C1146.43 427.216 1184 389.516 1184 343.108V259Z" fill="#FA92B1"/>
<path d="M1184 259H1134V511H1184V259Z" fill="#FA92B1"/>
<path d="M128 180L128 427.377H178V375.966L238.615 427.377H286.173L298.617 412.706L243.429 365.898L301.841 294.076L263.05 262.528L205.289 333.549L178 310.404L178 180L128 180Z" fill="#FA92B1"/>
<rect x="525" y="259" width="57" height="168" fill="#FA92B1"/>
<circle cx="553.5" cy="201.5" r="28.5" fill="#FA92B1"/>
<path fill-rule="evenodd" clip-rule="evenodd" d="M1178 511H128V461H1178V511Z" fill="#FA92B1"/>
<path fill-rule="evenodd" clip-rule="evenodd" d="M655.585 31.0654L685.866 0.832031L726.139 41.1688L656.263 110.935L585.211 42.3637L624.794 1.34917L655.585 31.0654Z" fill="#BBDEFF"/>
</svg>
