<svg width="882" height="235" viewBox="0 0 882 235" fill="none" xmlns="http://www.w3.org/2000/svg">
<circle cx="657.588" cy="52.6704" r="12.6704" fill="black"/>
<circle cx="657.588" cy="90.4594" r="12.6704" fill="black"/>
<path fill-rule="evenodd" clip-rule="evenodd" d="M818.127 223.577C812.918 218.369 804.474 218.369 799.265 223.578C784.16 238.682 759.671 238.682 744.566 223.578C739.358 218.369 730.913 218.369 725.704 223.578C710.599 238.683 686.11 238.683 671.005 223.578C665.797 218.37 657.352 218.37 652.143 223.579C637.039 238.683 612.549 238.683 597.445 223.579C592.236 218.371 583.792 218.37 578.583 223.579C563.478 238.684 538.988 238.683 523.884 223.579C518.676 218.371 510.231 218.37 505.022 223.579C489.918 238.684 465.428 238.684 450.323 223.579C445.115 218.371 436.671 218.371 431.462 223.58C416.357 238.685 391.868 238.686 376.763 223.581C371.554 218.373 363.11 218.373 357.901 223.581C342.796 238.686 318.307 238.686 303.202 223.581C297.994 218.373 289.549 218.373 284.34 223.582C269.236 238.687 244.746 238.687 229.641 223.582C224.433 218.374 215.988 218.374 210.78 223.583C195.675 238.687 171.185 238.687 156.081 223.583C150.872 218.375 142.428 218.374 137.219 223.583C122.114 238.688 97.6247 238.688 82.52 223.583C77.3118 218.375 68.8671 218.375 63.6583 223.584C48.5536 238.689 24.064 238.689 8.95931 223.584L0 214.625L17.9186 196.706L26.8779 205.665C32.0864 210.874 40.5311 210.874 45.7396 205.665C60.844 190.561 85.3335 190.56 100.439 205.665C105.647 210.873 114.092 210.873 119.3 205.665C134.405 190.56 158.894 190.559 173.999 205.664C179.208 210.873 187.652 210.873 192.861 205.664C207.965 190.56 232.455 190.559 247.56 205.664C252.768 210.872 261.213 210.872 266.422 205.664C281.526 190.559 306.015 190.558 321.121 205.663C326.329 210.871 334.774 210.871 339.982 205.663C355.087 190.558 379.576 190.557 394.681 205.662C399.889 210.87 408.334 210.871 413.543 205.662C428.647 190.558 453.136 190.555 468.242 205.661C473.45 210.869 481.895 210.869 487.104 205.661C502.208 190.556 526.697 190.555 541.802 205.66C547.011 210.869 555.456 210.869 560.664 205.661C575.769 190.556 600.258 190.555 615.363 205.66C620.572 210.869 629.016 210.869 634.225 205.66C649.329 190.556 673.819 190.554 688.924 205.66C694.132 210.868 702.577 210.868 707.786 205.66C722.89 190.555 747.379 190.554 762.484 205.659C767.693 210.867 776.138 210.867 781.346 205.659C796.45 190.555 820.94 190.553 836.045 205.658C841.254 210.867 849.698 210.867 854.907 205.658L863.866 196.699L881.785 214.618L872.825 223.577C857.721 238.682 833.231 238.682 818.127 223.577Z" fill="#A3D3FF"/>
<path fill-rule="evenodd" clip-rule="evenodd" d="M292.484 114.479L280.925 114.479C259.564 114.479 242.248 97.1618 242.248 75.8005L242.248 0.000529666L267.588 0.000531881L267.588 75.8005C267.588 83.1665 273.56 89.1378 280.925 89.1378L292.484 89.1378L292.484 114.479Z" fill="black"/>
<path fill-rule="evenodd" clip-rule="evenodd" d="M608.926 64.6708C601.56 64.6708 595.589 70.6421 595.589 78.0081H595.584C595.049 98.9035 577.943 115.678 556.918 115.678H544.248V90.3375H556.918C564.284 90.3375 570.256 84.3662 570.256 77.0003H570.261C570.795 56.1048 587.902 39.3301 608.926 39.3301H621.596L621.596 64.6708H608.926Z" fill="black"/>
<path d="M311.918 30C311.918 22.8203 317.738 17 324.918 17C332.098 17 337.918 22.8203 337.918 30C337.918 37.1797 332.098 43 324.918 43C317.738 43 311.918 37.1797 311.918 30Z" fill="black"/>
<path fill-rule="evenodd" clip-rule="evenodd" d="M396.926 63.6708C389.56 63.6708 383.589 69.6421 383.589 77.0081L383.589 115.686L358.248 115.686L358.248 77.0081C358.248 55.6468 375.565 38.3301 396.926 38.3301C418.287 38.3301 435.604 55.6468 435.604 77.0081L435.604 115.686L410.263 115.686L410.263 77.0081C410.263 69.6421 404.292 63.6708 396.926 63.6708Z" fill="black"/>
<path fill-rule="evenodd" clip-rule="evenodd" d="M477.589 61.9199L477.589 0H452.248L452.248 115.686L477.589 115.686L477.589 91.6745L487.557 97.8087L518.836 116.826L532.001 95.1736L512.708 83.4433L535.54 53.1217L515.297 37.8783L490.985 70.1639L477.589 61.9199Z" fill="black"/>
<path fill-rule="evenodd" clip-rule="evenodd" d="M337.589 52L337.589 116L312.248 116L312.248 52L337.589 52Z" fill="black"/>
</svg>
